<svg height="556pt" viewBox="0.00 0.00 225.00 556.00" width="225pt" xmlns="http://www.w3.org/2000/svg" xmlns:xlink="http://www.w3.org/1999/xlink">
<g class="graph" id="graph0" transform="scale(1 1) rotate(0) translate(4 552)">
<title>G</title>
<polygon fill="white" points="-4,4 -4,-552 221,-552 221,4 -4,4" stroke="none"/>
<!-- 140276992436600 -->
<g class="node" id="node1"><title>140276992436600</title>
<polygon fill="none" points="45.5,-511.5 45.5,-547.5 171.5,-547.5 171.5,-511.5 45.5,-511.5" stroke="black"/>
<text font-family="Times,serif" font-size="14.00" text-anchor="middle" x="108.5" y="-525.8">input_1: InputLayer</text>
</g>
<!-- 140276992430488 -->
<g class="node" id="node2"><title>140276992430488</title>
<polygon fill="none" points="0,-438.5 0,-474.5 217,-474.5 217,-438.5 0,-438.5" stroke="black"/>
<text font-family="Times,serif" font-size="14.00" text-anchor="middle" x="108.5" y="-452.8">zero_padding2d_1: ZeroPadding2D</text>
</g>
<!-- 140276992436600&#45;&gt;140276992430488 -->
<g class="edge" id="edge1"><title>140276992436600-&gt;140276992430488</title>
<path d="M108.5,-511.313C108.5,-503.289 108.5,-493.547 108.5,-484.569" fill="none" stroke="black"/>
<polygon fill="black" points="112,-484.529 108.5,-474.529 105,-484.529 112,-484.529" stroke="black"/>
</g>
<!-- 140276992430600 -->
<g class="node" id="node3"><title>140276992430600</title>
<polygon fill="none" points="56,-365.5 56,-401.5 161,-401.5 161,-365.5 56,-365.5" stroke="black"/>
<text font-family="Times,serif" font-size="14.00" text-anchor="middle" x="108.5" y="-379.8">conv0: Conv2D</text>
</g>
<!-- 140276992430488&#45;&gt;140276992430600 -->
<g class="edge" id="edge2"><title>140276992430488-&gt;140276992430600</title>
<path d="M108.5,-438.313C108.5,-430.289 108.5,-420.547 108.5,-411.569" fill="none" stroke="black"/>
<polygon fill="black" points="112,-411.529 108.5,-401.529 105,-411.529 112,-411.529" stroke="black"/>
</g>
<!-- 140276992431328 -->
<g class="node" id="node4"><title>140276992431328</title>
<polygon fill="none" points="31.5,-292.5 31.5,-328.5 185.5,-328.5 185.5,-292.5 31.5,-292.5" stroke="black"/>
<text font-family="Times,serif" font-size="14.00" text-anchor="middle" x="108.5" y="-306.8">bn0: BatchNormalization</text>
</g>
<!-- 140276992430600&#45;&gt;140276992431328 -->
<g class="edge" id="edge3"><title>140276992430600-&gt;140276992431328</title>
<path d="M108.5,-365.313C108.5,-357.289 108.5,-347.547 108.5,-338.569" fill="none" stroke="black"/>
<polygon fill="black" points="112,-338.529 108.5,-328.529 105,-338.529 112,-338.529" stroke="black"/>
</g>
<!-- 140276992438112 -->
<g class="node" id="node5"><title>140276992438112</title>
<polygon fill="none" points="35,-219.5 35,-255.5 182,-255.5 182,-219.5 35,-219.5" stroke="black"/>
<text font-family="Times,serif" font-size="14.00" text-anchor="middle" x="108.5" y="-233.8">activation_1: Activation</text>
</g>
<!-- 140276992431328&#45;&gt;140276992438112 -->
<g class="edge" id="edge4"><title>140276992431328-&gt;140276992438112</title>
<path d="M108.5,-292.313C108.5,-284.289 108.5,-274.547 108.5,-265.569" fill="none" stroke="black"/>
<polygon fill="black" points="112,-265.529 108.5,-255.529 105,-265.529 112,-265.529" stroke="black"/>
</g>
<!-- 140276992371400 -->
<g class="node" id="node6"><title>140276992371400</title>
<polygon fill="none" points="26.5,-146.5 26.5,-182.5 190.5,-182.5 190.5,-146.5 26.5,-146.5" stroke="black"/>
<text font-family="Times,serif" font-size="14.00" text-anchor="middle" x="108.5" y="-160.8">max_pool: MaxPooling2D</text>
</g>
<!-- 140276992438112&#45;&gt;140276992371400 -->
<g class="edge" id="edge5"><title>140276992438112-&gt;140276992371400</title>
<path d="M108.5,-219.313C108.5,-211.289 108.5,-201.547 108.5,-192.569" fill="none" stroke="black"/>
<polygon fill="black" points="112,-192.529 108.5,-182.529 105,-192.529 112,-192.529" stroke="black"/>
</g>
<!-- 140276991717728 -->
<g class="node" id="node7"><title>140276991717728</title>
<polygon fill="none" points="54,-73.5 54,-109.5 163,-109.5 163,-73.5 54,-73.5" stroke="black"/>
<text font-family="Times,serif" font-size="14.00" text-anchor="middle" x="108.5" y="-87.8">flatten_1: Flatten</text>
</g>
<!-- 140276992371400&#45;&gt;140276991717728 -->
<g class="edge" id="edge6"><title>140276992371400-&gt;140276991717728</title>
<path d="M108.5,-146.313C108.5,-138.289 108.5,-128.547 108.5,-119.569" fill="none" stroke="black"/>
<polygon fill="black" points="112,-119.529 108.5,-109.529 105,-119.529 112,-119.529" stroke="black"/>
</g>
<!-- 140276991718624 -->
<g class="node" id="node8"><title>140276991718624</title>
<polygon fill="none" points="74,-0.5 74,-36.5 143,-36.5 143,-0.5 74,-0.5" stroke="black"/>
<text font-family="Times,serif" font-size="14.00" text-anchor="middle" x="108.5" y="-14.8">fc: Dense</text>
</g>
<!-- 140276991717728&#45;&gt;140276991718624 -->
<g class="edge" id="edge7"><title>140276991717728-&gt;140276991718624</title>
<path d="M108.5,-73.3129C108.5,-65.2895 108.5,-55.5475 108.5,-46.5691" fill="none" stroke="black"/>
<polygon fill="black" points="112,-46.5288 108.5,-36.5288 105,-46.5289 112,-46.5288" stroke="black"/>
</g>
</g>
</svg>